<svg id="Слой_1" data-name="Слой 1" xmlns="http://www.w3.org/2000/svg" viewBox="0 0 29 30"><defs><style>.cls-1{fill:#3acc45;}</style></defs><title>Icons</title><path class="cls-1" d="M26,15.18V11a2.94,2.94,0,0,0-1-2.23V3a3,3,0,0,0-3-3H4A3,3,0,0,0,1,3V8.77A2.94,2.94,0,0,0,0,11V27a3,3,0,0,0,3,3H23a3,3,0,0,0,3-3V22.82A3,3,0,0,0,28,20V18A3,3,0,0,0,26,15.18ZM3,3A1,1,0,0,1,4,2H22a1,1,0,0,1,1,1V4H3ZM3,7H23v7a1,1,0,0,1-1,1H4a1,1,0,0,1-1-1V7ZM24,27a1,1,0,0,1-1,1H3a1,1,0,0,1-1-1V16.23A3,3,0,0,0,4,17H15.18A2.77,2.77,0,0,0,15,18v2a3,3,0,0,0,3,3h6Zm2-7a1,1,0,0,1-1,1H18a1,1,0,0,1-1-1V18a1,1,0,0,1,1-1h7a1,1,0,0,1,1,1Z"/><circle class="cls-1" cx="5.5" cy="11.5" r="1.5"/></svg>