<svg id="Слой_1" data-name="Слой 1" xmlns="http://www.w3.org/2000/svg" viewBox="0 0 29 30"><defs><style>.cls-1{fill:#3acc45;}</style></defs><title>Icons</title><path class="cls-1" d="M21,0H3A3,3,0,0,0,0,3V27a3,3,0,0,0,3,3H21a3,3,0,0,0,3-3V3A3,3,0,0,0,21,0Zm1,27a1,1,0,0,1-1,1H3a1,1,0,0,1-1-1V3A1,1,0,0,1,3,2H7V4A1,1,0,0,0,8,5h8a1,1,0,0,0,1-1V2h4a1,1,0,0,1,1,1Z"/><rect class="cls-1" x="2.5" y="12.5" width="7" height="2" transform="translate(-7.79 8.2) rotate(-45)"/><rect class="cls-1" x="8.5" y="12.5" width="7" height="2" transform="translate(-6.03 12.44) rotate(-45)"/><rect class="cls-1" x="14.5" y="12.5" width="7" height="2" transform="translate(-4.27 16.68) rotate(-45)"/><rect class="cls-1" x="8" y="23" width="8" height="3"/></svg>