<svg xmlns="http://www.w3.org/2000/svg" viewBox="0 0 29 30"><defs><style>.cls-1{fill:#3acc45;}</style></defs><title>Icons</title><path class="cls-1" d="M21,2a1,1,0,0,1,1,1V27a1,1,0,0,1-1,1H3a1,1,0,0,1-1-1V3A1,1,0,0,1,3,2H21m0-2H3A3,3,0,0,0,0,3V27a3,3,0,0,0,3,3H21a3,3,0,0,0,3-3V3a3,3,0,0,0-3-3Z"/><path class="cls-1" d="M20,7.09,15.83,12v1.14a1.44,1.44,0,0,1-.58,1.17l-.47.34h-.35V13.14a.36.36,0,0,0-.34-.38h-.35L14,11.53l1.81-.28v-.76a.37.37,0,0,0-.35-.38h-.35a.37.37,0,0,0-.35-.37H13.39l-1.39,3-1.39-3H9.22a.37.37,0,0,0-.35.37H8.52a.37.37,0,0,0-.35.38v.76l1.81.28.28,1.23H9.91a.36.36,0,0,0-.34.38v1.52H9.22l-.47-.34a1.44,1.44,0,0,1-.58-1.17V12L4,7.09A6.07,6.07,0,0,0,5.42,11L4,10.49v2.27a4.38,4.38,0,0,0,4.17,4.55l.63-1.59.42,1.59h.35v.75c0,.14-.7.38-.7.38a.74.74,0,0,0-.7.76V20H6.75L4.83,17.87l-.49.53,1.82,2a.72.72,0,0,0-.07.33h.38L8,22.42l.5-.53L7.45,20.71h.72a.73.73,0,0,0,.7-.75h.7a.73.73,0,0,0,.69-.76l1-.38-2.05,3a3.67,3.67,0,0,0,5.5,0l-2.05-3,1,.38a.73.73,0,0,0,.69.76h.7a.73.73,0,0,0,.7.75h1.39a.68.68,0,0,0,.64-.47.93.93,0,0,0,.24,0A1.17,1.17,0,1,0,17,19.1a1.22,1.22,0,0,0,.37.86H15.83V19.2a.74.74,0,0,0-.7-.76s-.7-.24-.7-.38v-.75h.35l.42-1.59.63,1.59A4.38,4.38,0,0,0,20,12.76V10.49L18.58,11A6.07,6.07,0,0,0,20,7.09Z"/></svg>