<svg xmlns="http://www.w3.org/2000/svg" viewBox="0 0 117 43">
  <defs>
    <style>
      .cls-2 {
        opacity: 0.3;
      }
    </style>
  </defs>
  <title>Icons</title>
  <path class="cls-1"
    d="M45.35,2.14v34a6.13,6.13,0,0,1-6,6.31H33.51V29.61L28.2,39.27A5.8,5.8,0,0,1,20,41.11,6.28,6.28,0,0,1,18,38.63,6.51,6.51,0,0,1,18,33l5.23-9.58L34,4l.68-1.2a2.06,2.06,0,0,1,.53-.64A5.3,5.3,0,0,1,39.05.47h4.78A1.58,1.58,0,0,1,45.35,2.14Z" />
  <path class="cls-2" d="M18,32.44a5.92,5.92,0,0,0,0,5.49L1.13,9.16,11.79,3.05,23.47,23Z" />
  <path class="cls-1"
    d="M6.81,15.47H2A1.65,1.65,0,0,0,.35,17.13V36.21a6.14,6.14,0,0,0,6.07,6.26h5.93V21.09A5.58,5.58,0,0,0,6.81,15.47Z" />
  <path class="cls-1"
    d="M7.35.47H.93A.55.55,0,0,0,.35,1V6.26a6.36,6.36,0,0,0,6.58,6.2h5.83a.56.56,0,0,0,.59-.55h0V6.11a5.8,5.8,0,0,0-6-5.64Z" />
  <path class="cls-1"
    d="M49.42,28.05a15.45,15.45,0,0,1,1.51-7.13,11,11,0,0,1,4.31-4.86,12.38,12.38,0,0,1,6.65-1.64A11.54,11.54,0,0,1,71,18.18c2.27,2.5,3.33,5.87,3.33,10.18v.32c0,4.15-1.14,7.52-3.33,10a11.75,11.75,0,0,1-9.13,3.68A12,12,0,0,1,53,38.87a13.48,13.48,0,0,1-3.62-9.33V28.05Zm8.08.55a10.29,10.29,0,0,0,1.14,5.49A3.61,3.61,0,0,0,62,35.81c2.87,0,4.38-2.27,4.38-6.9v-.86c0-4.78-1.51-7.21-4.45-7.21-2.72,0-4.16,2.12-4.39,6.27Z" />
  <path class="cls-1"
    d="M86.65,16.5l.17,1.6a9.23,9.23,0,0,1,7.9-3.68c2.9,0,5,.88,6.45,2.56s2.18,4.25,2.18,7.69V41.82a.55.55,0,0,1-.57.57h-1.69a6.32,6.32,0,0,1-6.37-6.34v-11a4.44,4.44,0,0,0-.81-3,4,4,0,0,0-3.06-1,4.09,4.09,0,0,0-3.79,2V40.7a1.79,1.79,0,0,1-1.78,1.77H80.12a1.79,1.79,0,0,1-1.77-1.77h0v-24a1.78,1.78,0,0,1,1.77-1.76h4.76A1.7,1.7,0,0,1,86.65,16.5Z" />
  <path class="cls-1" d="M110.35.47h-7V6.19a6.36,6.36,0,0,0,6.58,6.19h6.42V6.11A5.8,5.8,0,0,0,110.35.47Z" />
  <path class="cls-1"
    d="M109.1,42.47h5.5a1.72,1.72,0,0,0,1.75-1.65V17.11a1.71,1.71,0,0,0-1.75-1.64h-5.5a1.7,1.7,0,0,0-1.75,1.64V40.82A1.77,1.77,0,0,0,109.1,42.47Z" />
</svg>