<svg id="Слой_1" data-name="Слой 1" xmlns="http://www.w3.org/2000/svg" viewBox="0 0 21 14"><defs><style>.cls-1{fill:#3acc45;}</style></defs><title>Icons</title><path class="cls-1" d="M4.71,4.82H3.47V6.9H4.71a.94.94,0,0,0,1-1,1.09,1.09,0,0,0-.26-.77A1,1,0,0,0,4.71,4.82Z"/><path class="cls-1" d="M11.29,5.22a1.41,1.41,0,0,0-1.07-.36H9.17V9.31h1.1a1.34,1.34,0,0,0,1-.35,1.78,1.78,0,0,0,.33-1.17c0-.38,0-.62,0-.71s0-.34,0-.71A1.7,1.7,0,0,0,11.29,5.22Z"/><path class="cls-1" d="M18.23,1.09h-16a2,2,0,0,0-2,2v8a2,2,0,0,0,2,2h16a2,2,0,0,0,2-2v-8A2,2,0,0,0,18.23,1.09ZM6.4,7.43A2.33,2.33,0,0,1,4.76,8H3.48v2.23a.24.24,0,0,1-.06.17.2.2,0,0,1-.15.06H2.44a.18.18,0,0,1-.15-.07.23.23,0,0,1-.06-.16V4a.29.29,0,0,1,0-.17.19.19,0,0,1,.16-.07H4.76A2.29,2.29,0,0,1,6.4,4.3,2,2,0,0,1,7,5.88,2,2,0,0,1,6.4,7.43Zm6.48.39a2.9,2.9,0,0,1-.66,2,2.57,2.57,0,0,1-1.91.63H8.15A.17.17,0,0,1,8,10.35.23.23,0,0,1,8,10.19V4a.23.23,0,0,1,0-.17.18.18,0,0,1,.15-.07h2.12a2.33,2.33,0,0,1,2.61,2.59c0,.37,0,.62,0,.75S12.89,7.45,12.88,7.82Zm5.35-3.14a.25.25,0,0,1-.06.16A.21.21,0,0,1,18,4.9H15.24V6.7h2.6a.2.2,0,0,1,.15.06.26.26,0,0,1,.07.16v.69a.24.24,0,0,1-.07.16.18.18,0,0,1-.15.07h-2.6v2.35a.23.23,0,0,1-.06.16.19.19,0,0,1-.16.07h-.78a.17.17,0,0,1-.14-.07.23.23,0,0,1-.06-.16V4a.23.23,0,0,1,.05-.17.18.18,0,0,1,.15-.07H18a.19.19,0,0,1,.16.07.24.24,0,0,1,.06.17Z"/></svg>