<svg 
 xmlns="http://www.w3.org/2000/svg"
 xmlns:xlink="http://www.w3.org/1999/xlink"
 width="28px" height="30px">
<path fill-rule="evenodd"  fill="rgb(27, 199, 72)"
 d="M25.999,22.819 L25.999,27.000 C25.999,28.659 24.659,29.999 22.999,29.999 L2.999,29.999 C1.340,29.999 -0.001,28.659 -0.001,27.000 L-0.001,10.999 C-0.001,10.109 0.380,9.309 0.999,8.769 L0.999,2.999 C0.999,1.349 2.349,-0.001 3.999,-0.001 L22.000,-0.001 C23.649,-0.001 24.999,1.349 24.999,2.999 L24.999,8.769 C25.619,9.309 25.999,10.109 25.999,10.999 L25.999,15.179 C27.159,15.599 27.999,16.700 27.999,18.000 L27.999,20.000 C27.999,21.300 27.159,22.400 25.999,22.819 ZM1.999,27.000 C1.999,27.550 2.450,27.999 2.999,27.999 L22.999,27.999 C23.549,27.999 24.000,27.550 24.000,27.000 L24.000,22.999 L17.999,22.999 C16.339,22.999 14.999,21.660 14.999,20.000 L14.999,18.000 C14.999,17.649 15.060,17.309 15.179,16.999 L3.999,16.999 C3.239,16.999 2.529,16.710 1.999,16.229 L1.999,27.000 ZM22.999,2.999 C22.999,2.449 22.549,1.999 22.000,1.999 L3.999,1.999 C3.449,1.999 2.999,2.449 2.999,2.999 L2.999,3.999 L22.999,3.999 L22.999,2.999 ZM22.999,10.000 L22.999,8.000 L22.999,7.000 L2.999,7.000 L2.999,8.000 L2.999,10.000 L2.999,13.999 C2.999,14.549 3.449,14.999 3.999,14.999 L17.999,14.999 L22.000,14.999 C22.549,14.999 22.999,14.549 22.999,13.999 L22.999,10.000 ZM25.999,18.000 C25.999,17.450 25.549,16.999 24.999,16.999 L22.000,16.999 L17.999,16.999 C17.449,16.999 17.000,17.450 17.000,18.000 L17.000,20.000 C17.000,20.549 17.449,21.000 17.999,21.000 L24.999,21.000 C25.549,21.000 25.999,20.549 25.999,20.000 L25.999,18.000 ZM5.499,12.999 C4.671,12.999 3.999,12.328 3.999,11.500 C3.999,10.671 4.671,10.000 5.499,10.000 C6.328,10.000 6.999,10.671 6.999,11.500 C6.999,12.328 6.328,12.999 5.499,12.999 Z"/>
</svg>