<svg xmlns="http://www.w3.org/2000/svg" width="16.94" height="16.969" viewBox="0 0 16.94 16.969">

  <path  d="M2163.41,914.959a8.493,8.493,0,1,0,8.47,8.493A8.482,8.482,0,0,0,2163.41,914.959Zm0.74,12.6a0.261,0.261,0,0,1-.09.2,0.308,0.308,0,0,1-.21.08h-0.78a0.275,0.275,0,0,1-.21-0.08,0.253,0.253,0,0,1-.08-0.2V926.84a0.273,0.273,0,0,1,.08-0.211,0.266,0.266,0,0,1,.21-0.087h0.78a0.3,0.3,0,0,1,.21.087,0.282,0.282,0,0,1,.09.211v0.717Zm1.84-5.231a7.174,7.174,0,0,1-.86,1.064,7.318,7.318,0,0,0-.72.859,1.677,1.677,0,0,0-.28.785c-0.01.231-.02,0.4-0.02,0.52a0.315,0.315,0,0,1-.32.3h-0.61a0.279,0.279,0,0,1-.2-0.074,0.268,0.268,0,0,1-.08-0.2v-0.507a2.228,2.228,0,0,1,.35-1.137,7.338,7.338,0,0,1,.91-1.076,8.253,8.253,0,0,0,.67-0.754,1.32,1.32,0,0,0,.26-0.643,0.666,0.666,0,0,0,.01-0.161,1.034,1.034,0,0,0-.49-0.9,1.994,1.994,0,0,0-1.14-.333,1.838,1.838,0,0,0-1.17.364,1.736,1.736,0,0,0-.61,1.144,0.309,0.309,0,0,1-.33.272h-0.55a0.3,0.3,0,0,1-.2-0.074,0.269,0.269,0,0,1-.08-0.2,2.451,2.451,0,0,1,.4-1.255,2.546,2.546,0,0,1,1.04-.915,3.376,3.376,0,0,1,1.54-.34,3.464,3.464,0,0,1,1.54.309,2.15,2.15,0,0,1,.93.81A2.1,2.1,0,0,1,2165.99,922.326Z" transform="translate(-2154.94 -914.969)"/>
</svg>
