<svg xmlns="http://www.w3.org/2000/svg" width="28" height="24" viewBox="0 0 28 24">
  <defs>
    <style>
      .cls-1 {
        fill: #1bc748;
        fill-rule: evenodd;
      }
    </style>
  </defs>
  <path id="Фигура_1" data-name="Фигура 1" class="cls-1" d="M2364,661.182V657a3,3,0,0,0-3-3h-20a3,3,0,0,0-3,3v18a3,3,0,0,0,3,3h20a3,3,0,0,0,3-3v-4.183a2.994,2.994,0,0,0,2-2.816v-4A3,3,0,0,0,2364,661.182ZM2361,676h-20a1,1,0,0,1-1-1V657a1,1,0,0,1,1-1h20a1,1,0,0,1,1,1v4h-6a3,3,0,0,0-3,3v4a3,3,0,0,0,3,3h6v4A1,1,0,0,1,2361,676Zm3-8a1,1,0,0,1-1,1h-7a1,1,0,0,1-1-1v-4a1,1,0,0,1,1-1h7a1,1,0,0,1,1,1v4Zm-8-2,2,2,2-2-2-2Z" transform="translate(-2338 -654)"/>
</svg>
